<svg width="82" height="121" viewBox="0 0 82 121" fill="none" xmlns="http://www.w3.org/2000/svg">
<path d="M21.607 84.64C21.9057 84.64 22.1457 84.736 22.327 84.928C22.5083 85.1093 22.599 85.3547 22.599 85.664V95.136C22.599 95.4347 22.5137 95.6693 22.343 95.84C22.1723 96.0107 21.9483 96.096 21.671 96.096C21.3937 96.096 21.175 96.0107 21.015 95.84C20.855 95.6693 20.775 95.4347 20.775 95.136V88.544L18.055 93.696C17.927 93.9307 17.7883 94.1067 17.639 94.224C17.4897 94.3307 17.3137 94.384 17.111 94.384C16.9083 94.384 16.7323 94.3307 16.583 94.224C16.4337 94.1173 16.295 93.9413 16.167 93.696L13.431 88.624V95.136C13.431 95.424 13.3457 95.6587 13.175 95.84C13.015 96.0107 12.7963 96.096 12.519 96.096C12.2417 96.096 12.023 96.0107 11.863 95.84C11.703 95.6693 11.623 95.4347 11.623 95.136V85.664C11.623 85.3547 11.7083 85.1093 11.879 84.928C12.0603 84.736 12.3003 84.64 12.599 84.64C13.015 84.64 13.3403 84.8693 13.575 85.328L17.127 92.096L20.663 85.328C20.8977 84.8693 21.2123 84.64 21.607 84.64ZM28.4361 96.128C27.6361 96.128 26.9321 95.9627 26.3241 95.632C25.7268 95.3013 25.2628 94.8267 24.9321 94.208C24.6015 93.5893 24.4361 92.8693 24.4361 92.048C24.4361 91.2267 24.6015 90.512 24.9321 89.904C25.2628 89.2853 25.7268 88.8107 26.3241 88.48C26.9321 88.1493 27.6361 87.984 28.4361 87.984C29.2361 87.984 29.9348 88.1493 30.5321 88.48C31.1401 88.8107 31.6041 89.2853 31.9241 89.904C32.2548 90.512 32.4201 91.2267 32.4201 92.048C32.4201 92.8693 32.2548 93.5893 31.9241 94.208C31.6041 94.8267 31.1401 95.3013 30.5321 95.632C29.9348 95.9627 29.2361 96.128 28.4361 96.128ZM28.4201 94.576C29.0708 94.576 29.5668 94.3627 29.9081 93.936C30.2495 93.5093 30.4201 92.88 30.4201 92.048C30.4201 91.2267 30.2495 90.6027 29.9081 90.176C29.5668 89.7387 29.0761 89.52 28.4361 89.52C27.7961 89.52 27.3001 89.7387 26.9481 90.176C26.6068 90.6027 26.4361 91.2267 26.4361 92.048C26.4361 92.88 26.6068 93.5093 26.9481 93.936C27.2895 94.3627 27.7801 94.576 28.4201 94.576ZM38.4393 88.016C38.7166 87.9947 38.9353 88.0533 39.0953 88.192C39.2553 88.3307 39.3353 88.5387 39.3353 88.816C39.3353 89.104 39.2659 89.3173 39.1273 89.456C38.9886 89.5947 38.7379 89.6853 38.3753 89.728L37.8953 89.776C37.2659 89.84 36.8019 90.0533 36.5033 90.416C36.2153 90.7787 36.0713 91.232 36.0713 91.776V95.136C36.0713 95.4453 35.9753 95.6853 35.7833 95.856C35.5913 96.016 35.3513 96.096 35.0633 96.096C34.7753 96.096 34.5353 96.016 34.3433 95.856C34.1619 95.6853 34.0713 95.4453 34.0713 95.136V88.944C34.0713 88.6453 34.1619 88.416 34.3433 88.256C34.5353 88.096 34.7699 88.016 35.0473 88.016C35.3246 88.016 35.5486 88.096 35.7193 88.256C35.8899 88.4053 35.9753 88.624 35.9753 88.912V89.552C36.1779 89.0827 36.4766 88.72 36.8713 88.464C37.2766 88.208 37.7246 88.064 38.2153 88.032L38.4393 88.016ZM44.7403 87.984C45.6789 87.984 46.3776 88.2507 46.8363 88.784C47.2949 89.3173 47.5243 90.1227 47.5243 91.2V95.136C47.5243 95.4347 47.4336 95.6693 47.2523 95.84C47.0816 96.0107 46.8416 96.096 46.5323 96.096C46.2229 96.096 45.9776 96.0107 45.7963 95.84C45.6149 95.6693 45.5243 95.4347 45.5243 95.136V91.312C45.5243 90.704 45.4069 90.2613 45.1723 89.984C44.9483 89.7067 44.5909 89.568 44.1003 89.568C43.5243 89.568 43.0603 89.7493 42.7083 90.112C42.3669 90.4747 42.1963 90.96 42.1963 91.568V95.136C42.1963 95.4347 42.1056 95.6693 41.9243 95.84C41.7429 96.0107 41.4976 96.096 41.1883 96.096C40.8789 96.096 40.6336 96.0107 40.4523 95.84C40.2816 95.6693 40.1963 95.4347 40.1963 95.136V88.944C40.1963 88.6667 40.2869 88.4427 40.4683 88.272C40.6496 88.1013 40.8949 88.016 41.2043 88.016C41.4816 88.016 41.7056 88.1013 41.8763 88.272C42.0576 88.432 42.1483 88.6453 42.1483 88.912V89.344C42.4149 88.9067 42.7723 88.5707 43.2203 88.336C43.6683 88.1013 44.1749 87.984 44.7403 87.984ZM50.5476 96.096C50.2596 96.096 50.0196 96.016 49.8276 95.856C49.6463 95.6853 49.5556 95.4453 49.5556 95.136V88.96C49.5556 88.6507 49.6463 88.416 49.8276 88.256C50.0196 88.096 50.2596 88.016 50.5476 88.016C50.8356 88.016 51.0756 88.096 51.2676 88.256C51.4596 88.416 51.5556 88.6507 51.5556 88.96V95.136C51.5556 95.4453 51.4596 95.6853 51.2676 95.856C51.0756 96.016 50.8356 96.096 50.5476 96.096ZM50.5476 86.592C50.185 86.592 49.897 86.496 49.6836 86.304C49.4703 86.1013 49.3636 85.84 49.3636 85.52C49.3636 85.2 49.4703 84.944 49.6836 84.752C49.897 84.56 50.185 84.464 50.5476 84.464C50.8996 84.464 51.1823 84.56 51.3956 84.752C51.6196 84.944 51.7316 85.2 51.7316 85.52C51.7316 85.84 51.625 86.1013 51.4116 86.304C51.1983 86.496 50.9103 86.592 50.5476 86.592ZM58.1621 87.984C59.1008 87.984 59.7995 88.2507 60.2581 88.784C60.7168 89.3173 60.9461 90.1227 60.9461 91.2V95.136C60.9461 95.4347 60.8555 95.6693 60.6741 95.84C60.5035 96.0107 60.2635 96.096 59.9541 96.096C59.6448 96.096 59.3995 96.0107 59.2181 95.84C59.0368 95.6693 58.9461 95.4347 58.9461 95.136V91.312C58.9461 90.704 58.8288 90.2613 58.5941 89.984C58.3701 89.7067 58.0128 89.568 57.5221 89.568C56.9461 89.568 56.4821 89.7493 56.1301 90.112C55.7888 90.4747 55.6181 90.96 55.6181 91.568V95.136C55.6181 95.4347 55.5275 95.6693 55.3461 95.84C55.1648 96.0107 54.9195 96.096 54.6101 96.096C54.3008 96.096 54.0555 96.0107 53.8741 95.84C53.7035 95.6693 53.6181 95.4347 53.6181 95.136V88.944C53.6181 88.6667 53.7088 88.4427 53.8901 88.272C54.0715 88.1013 54.3168 88.016 54.6261 88.016C54.9035 88.016 55.1275 88.1013 55.2981 88.272C55.4795 88.432 55.5701 88.6453 55.5701 88.912V89.344C55.8368 88.9067 56.1941 88.5707 56.6421 88.336C57.0901 88.1013 57.5968 87.984 58.1621 87.984ZM69.6015 88.016C69.9002 88.016 70.1402 88.1013 70.3215 88.272C70.5028 88.4427 70.5935 88.672 70.5935 88.96V95.28C70.5935 96.5067 70.2522 97.4347 69.5695 98.064C68.8868 98.6933 67.8788 99.008 66.5455 99.008C65.3828 99.008 64.4122 98.7893 63.6335 98.352C63.2388 98.1173 63.0415 97.8347 63.0415 97.504C63.0415 97.2693 63.0948 97.0827 63.2015 96.944C63.3188 96.8053 63.4682 96.736 63.6495 96.736C63.7455 96.736 63.8628 96.7573 64.0015 96.8C64.1402 96.8533 64.2842 96.912 64.4335 96.976C64.8175 97.136 65.1588 97.2587 65.4575 97.344C65.7668 97.4293 66.1188 97.472 66.5135 97.472C67.9108 97.472 68.6095 96.7893 68.6095 95.424V94.4C68.3748 94.8373 68.0335 95.1787 67.5855 95.424C67.1375 95.6587 66.6255 95.776 66.0495 95.776C65.3668 95.776 64.7588 95.616 64.2255 95.296C63.7028 94.9653 63.2922 94.5067 62.9935 93.92C62.6948 93.3333 62.5455 92.656 62.5455 91.888C62.5455 91.12 62.6895 90.4427 62.9775 89.856C63.2762 89.2587 63.6922 88.8 64.2255 88.48C64.7588 88.1493 65.3668 87.984 66.0495 87.984C66.6255 87.984 67.1375 88.1067 67.5855 88.352C68.0335 88.5867 68.3748 88.9227 68.6095 89.36V88.944C68.6095 88.6667 68.7002 88.4427 68.8815 88.272C69.0628 88.1013 69.3028 88.016 69.6015 88.016ZM66.5775 94.224C67.2175 94.224 67.7135 94.016 68.0655 93.6C68.4282 93.184 68.6095 92.6133 68.6095 91.888C68.6095 91.152 68.4282 90.576 68.0655 90.16C67.7135 89.744 67.2175 89.536 66.5775 89.536C65.9482 89.536 65.4522 89.744 65.0895 90.16C64.7268 90.576 64.5455 91.152 64.5455 91.888C64.5455 92.6133 64.7268 93.184 65.0895 93.6C65.4522 94.016 65.9482 94.224 66.5775 94.224Z" fill="#0D2AAB"/>
<path d="M8.26087 111.229C8.39087 111.229 8.49487 111.268 8.57287 111.346C8.65954 111.424 8.70287 111.532 8.70287 111.671V114.908C8.70287 115.116 8.6682 115.272 8.59887 115.376C8.53821 115.48 8.4212 115.562 8.24787 115.623C7.9012 115.77 7.48087 115.887 6.98687 115.974C6.49287 116.061 5.99887 116.104 5.50487 116.104C4.59487 116.104 3.81054 115.918 3.15187 115.545C2.4932 115.172 1.9862 114.635 1.63087 113.933C1.2842 113.231 1.11087 112.39 1.11087 111.411C1.11087 110.449 1.2842 109.617 1.63087 108.915C1.97754 108.213 2.47587 107.676 3.12587 107.303C3.77587 106.922 4.53854 106.731 5.41387 106.731C6.02054 106.731 6.58387 106.826 7.10387 107.017C7.62387 107.199 8.06154 107.463 8.41687 107.81C8.5642 107.957 8.63787 108.109 8.63787 108.265C8.63787 108.386 8.6032 108.495 8.53387 108.59C8.46454 108.677 8.37787 108.72 8.27387 108.72C8.16987 108.72 8.04854 108.668 7.90987 108.564C7.4592 108.217 7.05187 107.979 6.68787 107.849C6.32387 107.71 5.90354 107.641 5.42687 107.641C4.39554 107.641 3.60254 107.966 3.04787 108.616C2.50187 109.266 2.22887 110.198 2.22887 111.411C2.22887 112.65 2.5062 113.595 3.06087 114.245C3.6242 114.886 4.44754 115.207 5.53087 115.207C6.33687 115.207 7.0692 115.086 7.72787 114.843V112.061H5.82987C5.68254 112.061 5.56554 112.022 5.47887 111.944C5.3922 111.866 5.34887 111.766 5.34887 111.645C5.34887 111.515 5.3922 111.415 5.47887 111.346C5.56554 111.268 5.68254 111.229 5.82987 111.229H8.26087ZM11.2331 116.065C11.0771 116.065 10.9471 116.022 10.8431 115.935C10.7478 115.84 10.7001 115.71 10.7001 115.545V110.059C10.7001 109.894 10.7478 109.769 10.8431 109.682C10.9471 109.587 11.0771 109.539 11.2331 109.539C11.3891 109.539 11.5148 109.587 11.6101 109.682C11.7054 109.769 11.7531 109.894 11.7531 110.059V115.545C11.7531 115.718 11.7054 115.848 11.6101 115.935C11.5148 116.022 11.3891 116.065 11.2331 116.065ZM11.2331 108.174C11.0251 108.174 10.8561 108.113 10.7261 107.992C10.5961 107.871 10.5311 107.71 10.5311 107.511C10.5311 107.32 10.5961 107.164 10.7261 107.043C10.8561 106.922 11.0251 106.861 11.2331 106.861C11.4411 106.861 11.6101 106.922 11.7401 107.043C11.8701 107.164 11.9351 107.32 11.9351 107.511C11.9351 107.71 11.8701 107.871 11.7401 107.992C11.6101 108.113 11.4411 108.174 11.2331 108.174ZM16.7481 115.233C17.0515 115.259 17.2031 115.398 17.2031 115.649C17.2031 115.796 17.1468 115.909 17.0341 115.987C16.9301 116.056 16.7698 116.082 16.5531 116.065L16.2021 116.039C15.5088 115.987 14.9975 115.779 14.6681 115.415C14.3388 115.051 14.1741 114.501 14.1741 113.764V110.501H13.3031C13.1558 110.501 13.0388 110.466 12.9521 110.397C12.8741 110.319 12.8351 110.219 12.8351 110.098C12.8351 109.968 12.8741 109.864 12.9521 109.786C13.0388 109.708 13.1558 109.669 13.3031 109.669H14.1741V108.2C14.1741 108.035 14.2218 107.91 14.3171 107.823C14.4125 107.728 14.5425 107.68 14.7071 107.68C14.8631 107.68 14.9888 107.728 15.0841 107.823C15.1795 107.91 15.2271 108.035 15.2271 108.2V109.669H16.6701C16.8088 109.669 16.9171 109.708 16.9951 109.786C17.0818 109.864 17.1251 109.968 17.1251 110.098C17.1251 110.219 17.0818 110.319 16.9951 110.397C16.9171 110.466 16.8088 110.501 16.6701 110.501H15.2271V113.816C15.2271 114.293 15.3225 114.639 15.5131 114.856C15.7125 115.064 16.0071 115.181 16.3971 115.207L16.7481 115.233ZM21.4391 109.513C22.1844 109.513 22.7478 109.725 23.1291 110.15C23.5104 110.566 23.7011 111.19 23.7011 112.022V115.545C23.7011 115.71 23.6534 115.84 23.5581 115.935C23.4628 116.022 23.3371 116.065 23.1811 116.065C23.0164 116.065 22.8864 116.022 22.7911 115.935C22.6958 115.84 22.6481 115.71 22.6481 115.545V112.048C22.6481 111.485 22.5311 111.069 22.2971 110.8C22.0718 110.531 21.7078 110.397 21.2051 110.397C20.6244 110.397 20.1608 110.575 19.8141 110.93C19.4674 111.285 19.2941 111.766 19.2941 112.373V115.545C19.2941 115.71 19.2464 115.84 19.1511 115.935C19.0644 116.022 18.9388 116.065 18.7741 116.065C18.6094 116.065 18.4794 116.022 18.3841 115.935C18.2888 115.84 18.2411 115.71 18.2411 115.545V107.277C18.2411 107.13 18.2888 107.008 18.3841 106.913C18.4881 106.818 18.6181 106.77 18.7741 106.77C18.9388 106.77 19.0644 106.818 19.1511 106.913C19.2464 107 19.2941 107.121 19.2941 107.277V110.683C19.5021 110.302 19.7924 110.011 20.1651 109.812C20.5378 109.613 20.9624 109.513 21.4391 109.513ZM30.4398 109.539C30.6045 109.539 30.7301 109.587 30.8168 109.682C30.9121 109.777 30.9598 109.903 30.9598 110.059V115.558C30.9598 115.705 30.9121 115.827 30.8168 115.922C30.7301 116.017 30.6045 116.065 30.4398 116.065C30.2838 116.065 30.1581 116.022 30.0628 115.935C29.9761 115.84 29.9328 115.718 29.9328 115.571V114.921C29.7335 115.302 29.4518 115.593 29.0878 115.792C28.7325 115.991 28.3295 116.091 27.8788 116.091C27.1248 116.091 26.5571 115.883 26.1758 115.467C25.7945 115.042 25.6038 114.418 25.6038 113.595V110.059C25.6038 109.903 25.6515 109.777 25.7468 109.682C25.8421 109.587 25.9721 109.539 26.1368 109.539C26.3015 109.539 26.4271 109.587 26.5138 109.682C26.6091 109.777 26.6568 109.903 26.6568 110.059V113.569C26.6568 114.132 26.7695 114.548 26.9948 114.817C27.2201 115.077 27.5755 115.207 28.0608 115.207C28.6155 115.207 29.0618 115.029 29.3998 114.674C29.7378 114.31 29.9068 113.833 29.9068 113.244V110.059C29.9068 109.903 29.9545 109.777 30.0498 109.682C30.1451 109.587 30.2751 109.539 30.4398 109.539ZM36.1019 109.513C36.6566 109.513 37.1462 109.647 37.5709 109.916C37.9956 110.185 38.3249 110.566 38.5589 111.06C38.7929 111.554 38.9099 112.126 38.9099 112.776C38.9099 113.435 38.7929 114.015 38.5589 114.518C38.3249 115.012 37.9956 115.398 37.5709 115.675C37.1462 115.952 36.6566 116.091 36.1019 116.091C35.6079 116.091 35.1746 115.983 34.8019 115.766C34.4379 115.549 34.1606 115.242 33.9699 114.843V115.545C33.9699 115.701 33.9222 115.827 33.8269 115.922C33.7402 116.017 33.6146 116.065 33.4499 116.065C33.2852 116.065 33.1552 116.017 33.0599 115.922C32.9646 115.827 32.9169 115.701 32.9169 115.545V107.277C32.9169 107.13 32.9646 107.008 33.0599 106.913C33.1552 106.818 33.2852 106.77 33.4499 106.77C33.6146 106.77 33.7402 106.818 33.8269 106.913C33.9222 107 33.9699 107.121 33.9699 107.277V110.761C34.1606 110.362 34.4379 110.055 34.8019 109.838C35.1746 109.621 35.6079 109.513 36.1019 109.513ZM35.8939 115.22C36.5092 115.22 36.9859 115.008 37.3239 114.583C37.6619 114.15 37.8309 113.547 37.8309 112.776C37.8309 112.022 37.6619 111.437 37.3239 111.021C36.9859 110.605 36.5092 110.397 35.8939 110.397C35.2786 110.397 34.8019 110.605 34.4639 111.021C34.1346 111.437 33.9699 112.031 33.9699 112.802C33.9699 113.573 34.1346 114.171 34.4639 114.596C34.8019 115.012 35.2786 115.22 35.8939 115.22ZM46.9679 109.539C47.3319 109.513 47.5139 109.66 47.5139 109.981C47.5139 110.12 47.4749 110.232 47.3969 110.319C47.3189 110.397 47.1845 110.445 46.9939 110.462L46.6039 110.501C46.0232 110.553 45.5899 110.761 45.3039 111.125C45.0265 111.48 44.8879 111.901 44.8879 112.386V115.545C44.8879 115.718 44.8402 115.848 44.7449 115.935C44.6495 116.022 44.5239 116.065 44.3679 116.065C44.2119 116.065 44.0819 116.022 43.9779 115.935C43.8825 115.84 43.8349 115.71 43.8349 115.545V110.059C43.8349 109.894 43.8869 109.769 43.9909 109.682C44.0949 109.587 44.2205 109.539 44.3679 109.539C44.5065 109.539 44.6235 109.587 44.7189 109.682C44.8142 109.769 44.8619 109.89 44.8619 110.046V110.774C45.0439 110.393 45.2995 110.102 45.6289 109.903C45.9669 109.704 46.3525 109.587 46.7859 109.552L46.9679 109.539ZM53.1919 114.531C53.2873 114.531 53.3696 114.57 53.4389 114.648C53.5083 114.726 53.5429 114.826 53.5429 114.947C53.5429 115.164 53.3913 115.363 53.0879 115.545C52.7759 115.727 52.4466 115.866 52.0999 115.961C51.7533 116.048 51.4153 116.091 51.0859 116.091C50.1066 116.091 49.3309 115.801 48.7589 115.22C48.1956 114.639 47.9139 113.838 47.9139 112.815C47.9139 112.165 48.0396 111.593 48.2909 111.099C48.5423 110.596 48.8933 110.206 49.3439 109.929C49.8033 109.652 50.3233 109.513 50.9039 109.513C51.7273 109.513 52.3816 109.782 52.8669 110.319C53.3523 110.856 53.5949 111.584 53.5949 112.503C53.5949 112.676 53.5603 112.802 53.4909 112.88C53.4216 112.958 53.3089 112.997 53.1529 112.997H48.9669C49.0449 114.488 49.7513 115.233 51.0859 115.233C51.4239 115.233 51.7143 115.19 51.9569 115.103C52.1996 115.008 52.4596 114.882 52.7369 114.726C52.9623 114.596 53.1139 114.531 53.1919 114.531ZM50.9169 110.332C50.3623 110.332 49.9159 110.505 49.5779 110.852C49.2486 111.199 49.0536 111.688 48.9929 112.321H52.6719C52.6546 111.68 52.4943 111.19 52.1909 110.852C51.8876 110.505 51.4629 110.332 50.9169 110.332ZM59.6332 109.864C59.7285 109.656 59.8802 109.552 60.0882 109.552C60.2182 109.552 60.3352 109.595 60.4392 109.682C60.5432 109.769 60.5952 109.877 60.5952 110.007C60.5952 110.085 60.5779 110.154 60.5432 110.215L58.0082 115.675C57.9562 115.788 57.8782 115.879 57.7742 115.948C57.6702 116.009 57.5575 116.039 57.4362 116.039C57.3235 116.039 57.2152 116.009 57.1112 115.948C57.0072 115.879 56.9249 115.788 56.8642 115.675L54.3422 110.215C54.3075 110.154 54.2902 110.089 54.2902 110.02C54.2902 109.89 54.3465 109.777 54.4592 109.682C54.5805 109.587 54.7105 109.539 54.8492 109.539C54.9359 109.539 55.0182 109.565 55.0962 109.617C55.1829 109.669 55.2479 109.743 55.2912 109.838L57.4622 114.713L59.6332 109.864ZM62.446 116.065C62.29 116.065 62.16 116.022 62.056 115.935C61.9607 115.84 61.913 115.71 61.913 115.545V110.059C61.913 109.894 61.9607 109.769 62.056 109.682C62.16 109.587 62.29 109.539 62.446 109.539C62.602 109.539 62.7277 109.587 62.823 109.682C62.9183 109.769 62.966 109.894 62.966 110.059V115.545C62.966 115.718 62.9183 115.848 62.823 115.935C62.7277 116.022 62.602 116.065 62.446 116.065ZM62.446 108.174C62.238 108.174 62.069 108.113 61.939 107.992C61.809 107.871 61.744 107.71 61.744 107.511C61.744 107.32 61.809 107.164 61.939 107.043C62.069 106.922 62.238 106.861 62.446 106.861C62.654 106.861 62.823 106.922 62.953 107.043C63.083 107.164 63.148 107.32 63.148 107.511C63.148 107.71 63.083 107.871 62.953 107.992C62.823 108.113 62.654 108.174 62.446 108.174ZM69.8355 114.531C69.9308 114.531 70.0131 114.57 70.0825 114.648C70.1518 114.726 70.1865 114.826 70.1865 114.947C70.1865 115.164 70.0348 115.363 69.7315 115.545C69.4195 115.727 69.0901 115.866 68.7435 115.961C68.3968 116.048 68.0588 116.091 67.7295 116.091C66.7501 116.091 65.9745 115.801 65.4025 115.22C64.8391 114.639 64.5575 113.838 64.5575 112.815C64.5575 112.165 64.6831 111.593 64.9345 111.099C65.1858 110.596 65.5368 110.206 65.9875 109.929C66.4468 109.652 66.9668 109.513 67.5475 109.513C68.3708 109.513 69.0251 109.782 69.5105 110.319C69.9958 110.856 70.2385 111.584 70.2385 112.503C70.2385 112.676 70.2038 112.802 70.1345 112.88C70.0651 112.958 69.9525 112.997 69.7965 112.997H65.6105C65.6885 114.488 66.3948 115.233 67.7295 115.233C68.0675 115.233 68.3578 115.19 68.6005 115.103C68.8431 115.008 69.1031 114.882 69.3805 114.726C69.6058 114.596 69.7575 114.531 69.8355 114.531ZM67.5605 110.332C67.0058 110.332 66.5595 110.505 66.2215 110.852C65.8921 111.199 65.6971 111.688 65.6365 112.321H69.3155C69.2981 111.68 69.1378 111.19 68.8345 110.852C68.5311 110.505 68.1065 110.332 67.5605 110.332ZM80.3718 109.877C80.4584 109.669 80.6014 109.565 80.8008 109.565C80.9308 109.565 81.0478 109.608 81.1518 109.695C81.2558 109.782 81.3078 109.89 81.3078 110.02C81.3078 110.081 81.2948 110.146 81.2688 110.215L79.1108 115.675C79.0588 115.788 78.9808 115.879 78.8768 115.948C78.7814 116.009 78.6731 116.039 78.5518 116.039C78.4391 116.039 78.3308 116.009 78.2268 115.948C78.1314 115.879 78.0578 115.788 78.0058 115.675L76.2118 111.112L74.4308 115.675C74.3874 115.788 74.3138 115.879 74.2098 115.948C74.1058 116.009 73.9931 116.039 73.8718 116.039C73.7591 116.039 73.6508 116.009 73.5468 115.948C73.4428 115.879 73.3648 115.788 73.3128 115.675L71.1548 110.228C71.1288 110.159 71.1158 110.098 71.1158 110.046C71.1158 109.907 71.1721 109.79 71.2848 109.695C71.4061 109.6 71.5361 109.552 71.6748 109.552C71.8828 109.552 72.0301 109.656 72.1168 109.864L73.8978 114.661L75.7308 109.903C75.7828 109.79 75.8521 109.704 75.9388 109.643C76.0341 109.582 76.1338 109.552 76.2378 109.552C76.3504 109.552 76.4501 109.582 76.5368 109.643C76.6321 109.704 76.7014 109.79 76.7448 109.903L78.5778 114.648L80.3718 109.877Z" fill="#8A8A8A"/>
<path d="M62.4371 65.3367H13.401C10.4241 65.3367 8.01074 62.9233 8.01074 59.9464H67.8274C67.8274 62.9234 65.414 65.3367 62.4371 65.3367Z" fill="white"/>
<path d="M20.1388 65.3361H13.401C10.4242 65.3361 8.01074 62.924 8.01074 59.9459H14.7486C14.7486 62.924 17.1621 65.3361 20.1388 65.3361Z" fill="#EFEFEF"/>
<path d="M64.2468 53.2371C61.9088 53.2371 59.5849 52.4731 57.6576 50.975L55.474 49.2776C54.5069 48.5258 54.3324 47.1323 55.0842 46.165C55.8361 45.1978 57.2294 45.0229 58.1968 45.7751L60.3804 47.4725C62.3715 49.0202 65.0845 49.2328 67.2922 48.0142C69.3007 46.9057 70.5484 44.7919 70.5484 42.4978V38.9985C70.5484 37.7424 69.9613 36.6045 68.9377 35.8767C67.914 35.149 66.6464 34.968 65.4598 35.3808L59.873 37.3238C58.7163 37.7264 57.4518 37.1147 57.0493 35.9576C56.6468 34.8005 57.2586 33.5362 58.4156 33.1339L64.0024 31.1907C66.5253 30.313 69.3313 30.7134 71.5082 32.261C73.685 33.8089 74.9848 36.3275 74.9848 38.9985V42.4978C74.9848 46.4071 72.8586 50.0092 69.4359 51.8983C67.8109 52.7951 66.0245 53.237 64.2468 53.2371Z" fill="white"/>
<path d="M40.0694 59.9464H35.7686C23.5719 59.9464 13.6846 50.059 13.6846 37.8623V30.8592C13.6846 29.7428 14.5896 28.8378 15.7059 28.8378H60.1321C61.2484 28.8378 62.1535 29.7428 62.1535 30.8592V37.8623C62.1536 50.059 52.2661 59.9464 40.0694 59.9464Z" fill="white"/>
<path d="M41.2888 59.9122C40.8858 59.9351 40.4789 59.9459 40.0692 59.9459H35.7691C23.5723 59.9459 13.6838 50.0588 13.6838 37.8619V30.8586C13.6838 29.7428 14.5894 28.8373 15.7052 28.8373H22.443C21.3272 28.8373 20.4217 29.7428 20.4217 30.8586V37.8619C20.4217 49.6505 29.6579 59.28 41.2888 59.9122Z" fill="#EFEFEF"/>
<path d="M72.094 31.4382C69.6511 29.7004 66.502 29.2513 63.6702 30.2359L63.1321 30.423C62.92 28.9571 61.6556 27.827 60.1319 27.827H50.3809C49.8226 27.827 49.3702 28.2794 49.3702 28.8377C49.3702 29.396 49.8226 29.8484 50.3809 29.8484H60.1319C60.6892 29.8484 61.1426 30.3017 61.1426 30.859V37.8623C61.1426 49.4823 51.6892 58.9356 40.0693 58.9356H35.7692C30.252 58.9356 25.0354 56.818 21.0805 52.9729C20.6801 52.5837 20.0403 52.5931 19.6512 52.993C19.2622 53.3933 19.2712 54.0331 19.6713 54.4222C21.6308 56.3272 23.8736 57.8438 26.3009 58.9355H8.01068C7.45238 58.9355 7 59.3878 7 59.9461C7 63.4756 9.87153 66.3471 13.4009 66.3471H53.0154C53.5737 66.3471 54.0261 65.8947 54.0261 65.3364C54.0261 64.7781 53.5737 64.3257 53.0154 64.3257H13.4009C11.3338 64.3257 9.59649 62.8861 9.13899 60.9568H66.7005C66.5162 61.7406 66.1174 62.4602 65.5332 63.0442C64.7081 63.8707 63.6087 64.3257 62.4374 64.3257H57.4206C56.8623 64.3257 56.4099 64.7781 56.4099 65.3364C56.4099 65.8947 56.8623 66.3471 57.4206 66.3471H62.4374C64.1491 66.3471 65.7566 65.6814 66.9631 64.4732C68.1724 63.2637 68.8384 61.6561 68.8384 59.9461C68.8384 59.3878 68.386 58.9355 67.8277 58.9355H49.5148C52.8192 57.4486 55.7125 55.2062 57.9754 52.4304C59.8446 53.608 62.0369 54.2486 64.2475 54.2486C66.2253 54.2486 68.1882 53.7419 69.924 52.7834C73.6689 50.7161 75.9954 46.775 75.9954 42.498V38.9982C75.9954 35.9999 74.5367 33.1736 72.094 31.4382V31.4382ZM63.1639 37.8623V37.2507L65.7931 36.3357C66.6649 36.0315 67.5977 36.1648 68.3523 36.7009C69.1057 37.2371 69.5379 38.0743 69.5379 38.9983V42.4981C69.5379 44.4241 68.4904 46.1989 66.8048 47.13C65.0663 48.0889 62.9542 47.9916 61.3192 46.9048C62.506 44.1261 63.1639 41.0697 63.1639 37.8623V37.8623ZM73.9741 42.498C73.9741 46.039 72.0479 49.3021 68.9469 51.0138C67.5094 51.8076 65.8842 52.2273 64.2473 52.2273C62.4412 52.2273 60.7107 51.7369 59.1875 50.8044C59.6391 50.1395 60.0561 49.4497 60.4376 48.7379C61.6006 49.4485 62.9203 49.811 64.2473 49.8108C65.458 49.8108 66.6746 49.5102 67.7813 48.8996C70.1116 47.6125 71.5591 45.1597 71.5591 42.498V38.9982C71.5591 37.4117 70.8173 35.974 69.5235 35.0533C68.2277 34.1327 66.6254 33.9043 65.128 34.427L63.1639 35.1105V32.552L64.3341 32.1452C66.549 31.3749 69.0118 31.7263 70.9228 33.0856C72.8334 34.443 73.9741 36.6533 73.9741 38.9982V42.498Z" fill="#0D2AAB"/>
<path d="M14.0984 45.8669C14.6035 47.2333 15.244 48.5618 16.0021 49.8154C16.1921 50.1295 16.5259 50.3032 16.8679 50.3032C17.0461 50.3032 17.2265 50.2561 17.39 50.1573C17.8677 49.8684 18.0208 49.247 17.7318 48.7694C17.0397 47.6251 16.4552 46.4127 15.9944 45.1662C15.6791 44.3131 15.4171 43.4282 15.2155 42.5346C14.8699 41.0101 14.6947 39.4382 14.6947 37.8623V30.859C14.6947 30.3017 15.148 29.8484 15.7054 29.8484H45.9771C46.5354 29.8484 46.9878 29.396 46.9878 28.8377C46.9878 28.2794 46.5354 27.827 45.9771 27.827H15.7054C14.0336 27.827 12.6733 29.1872 12.6733 30.859V37.8623C12.6733 39.5883 12.8655 41.3106 13.2439 42.9805C13.465 43.9597 13.7523 44.9307 14.0984 45.8669Z" fill="#0D2AAB"/>
<path d="M36.6189 22.5223C36.3054 22.9841 36.4255 23.6126 36.8873 23.9262C37.0611 24.0442 37.2587 24.1008 37.4541 24.1008C37.7776 24.1008 38.0957 23.9457 38.2912 23.6578C42.8057 17.0091 40.2522 13.7176 38.2002 11.0728C36.2376 8.54305 34.6874 6.54488 38.2729 1.60456C38.6009 1.15272 38.5003 0.520846 38.0486 0.192983C37.5967 -0.135284 36.9649 -0.0344862 36.6371 0.417218C32.1603 6.58517 34.5207 9.62757 36.6031 12.3118C38.5916 14.8747 40.3088 17.0881 36.6189 22.5223V22.5223Z" fill="#0D2AAB"/>
<path d="M25.9485 18.1167C25.5953 18.549 25.6593 19.1857 26.0916 19.5389C26.2795 19.6924 26.5056 19.7669 26.7305 19.7669C27.0234 19.7669 27.314 19.6403 27.5138 19.3958C31.0715 15.0421 28.9673 12.7887 27.431 11.143C26.006 9.61691 25.1459 8.69585 27.4924 6.00934C27.8596 5.58903 27.8165 4.95056 27.396 4.58335C26.9759 4.21627 26.3373 4.25926 25.9701 4.6797C22.4226 8.74086 24.4633 10.9266 25.9535 12.5225C27.4198 14.0933 28.3887 15.1308 25.9485 18.1167V18.1167Z" fill="#0D2AAB"/>
<path d="M47.3962 18.1167C47.043 18.549 47.107 19.1857 47.5393 19.5389C47.7272 19.6924 47.9533 19.7669 48.1784 19.7669C48.4712 19.7669 48.7617 19.6403 48.9616 19.3958C52.5193 15.0421 50.4152 12.7885 48.8788 11.143C47.4538 9.61691 46.5938 8.69572 48.9401 6.00934C49.3074 5.58903 49.2642 4.95056 48.8438 4.58335C48.4236 4.21627 47.7851 4.25926 47.4178 4.6797C43.8703 8.74086 45.9111 10.9265 47.4014 12.5225C48.8676 14.0933 49.8365 15.1308 47.3962 18.1167V18.1167Z" fill="#0D2AAB"/>
</svg>
